<svg width="229" height="234" viewBox="0 0 229 234" fill="none" xmlns="http://www.w3.org/2000/svg">
<g clip-path="url(#clip0_3597_870)">
<path d="M39.5586 232.038L11.9434 183.091L56.763 183.209L82.4235 175.245C129.468 172.222 224.131 166.087 226.432 165.734C228.733 165.38 198.781 209.789 183.517 232.038H39.5586Z" fill="white"/>
<path d="M88.6483 83.2803C60.6373 79.4988 39.6607 63.6125 41.7957 47.7974C43.9308 31.9823 68.3691 22.2272 96.3801 26.0088C124.391 29.7904 145.368 45.6766 143.233 61.4917C141.098 77.3068 116.659 87.0619 88.6483 83.2803Z" fill="#00AEF6"/>
<path d="M88.6483 83.2803C60.6373 79.4988 39.6607 63.6125 41.7957 47.7974C43.9308 31.9823 68.3691 22.2272 96.3801 26.0088C124.391 29.7904 145.368 45.6766 143.233 61.4917C141.098 77.3068 116.659 87.0619 88.6483 83.2803Z" fill="#00AEF6"/>
<path d="M88.6483 83.2803C60.6373 79.4988 39.6607 63.6125 41.7957 47.7974C43.9308 31.9823 68.3691 22.2272 96.3801 26.0088C124.391 29.7904 145.368 45.6766 143.233 61.4917C141.098 77.3068 116.659 87.0619 88.6483 83.2803Z" fill="#00AEF6"/>
<path fill-rule="evenodd" clip-rule="evenodd" d="M54.521 69.2543C62.8385 75.5534 74.9151 80.4172 88.7821 82.2893C102.649 84.1614 115.583 82.6741 125.273 78.806C134.996 74.9249 141.244 68.7503 142.242 61.3579C143.24 53.9655 138.853 46.3553 130.507 40.0349C122.19 33.7357 110.113 28.8719 96.2464 26.9998C82.3794 25.1277 69.4454 26.6151 59.7552 30.4831C50.0324 34.3642 43.7847 40.5388 42.7867 47.9312C41.7888 55.3236 46.1754 62.9339 54.521 69.2543ZM41.7957 47.7974C39.6607 63.6125 60.6373 79.4988 88.6483 83.2803C116.659 87.0619 141.098 77.3068 143.233 61.4917C145.368 45.6766 124.391 29.7904 96.3801 26.0088C68.3691 22.2272 43.9308 31.9823 41.7957 47.7974Z" fill="#F41832"/>
<path d="M116.604 36.4676C131.566 56.6082 135.655 78.9083 125.736 86.2761C115.818 93.644 95.649 83.2896 80.6873 63.149C65.7256 43.0084 61.637 20.7083 71.5551 13.3405C81.4733 5.97261 101.642 16.327 116.604 36.4676Z" fill="#00AEF6"/>
<path d="M116.604 36.4676C131.566 56.6082 135.655 78.9083 125.736 86.2761C115.818 93.644 95.649 83.2896 80.6873 63.149C65.7256 43.0084 61.637 20.7083 71.5551 13.3405C81.4733 5.97261 101.642 16.327 116.604 36.4676Z" fill="#00AEF6"/>
<path d="M116.604 36.4676C131.566 56.6082 135.655 78.9083 125.736 86.2761C115.818 93.644 95.649 83.2896 80.6873 63.149C65.7256 43.0084 61.637 20.7083 71.5551 13.3405C81.4733 5.97261 101.642 16.327 116.604 36.4676Z" fill="#00AEF6"/>
<path d="M115.8 37.0639C123.21 47.0383 127.896 57.509 129.516 66.342C131.148 75.2453 129.624 82.1418 125.139 85.4734C120.654 88.8049 113.611 88.2726 105.559 84.1386C97.5699 80.0373 88.8985 72.527 81.4889 62.5526C80.0861 60.6643 78.781 58.7582 77.5758 56.8488L76.3192 56.7252C77.6515 58.8771 79.1084 61.025 80.6862 63.1489C95.6479 83.2896 115.817 93.644 125.735 86.2761C135.653 78.9082 131.565 56.6082 116.603 36.4676C101.641 16.3269 81.4722 5.97257 71.554 13.3404C65.6137 17.7532 64.6979 27.5225 68.1333 38.976H69.1781C68.5795 37.0175 68.1104 35.1107 67.7737 33.2746C66.1413 24.3712 67.6655 17.4748 72.1503 14.1432C76.6351 10.8116 83.6779 11.3439 91.7305 15.4779C99.7194 19.5792 108.391 27.0895 115.8 37.0639Z" fill="#F41832"/>
<path d="M116.464 68.0428C101.977 89.2236 82.1439 100.861 72.1657 94.0364C62.1875 87.2116 65.8428 64.5085 80.3301 43.3277C94.8173 22.147 114.65 10.5092 124.629 17.3341C134.607 24.159 130.951 46.862 116.464 68.0428Z" fill="#00AEF6"/>
<path d="M116.464 68.0428C101.977 89.2236 82.1439 100.861 72.1657 94.0364C62.1875 87.2116 65.8428 64.5085 80.3301 43.3277C94.8173 22.147 114.65 10.5092 124.629 17.3341C134.607 24.159 130.951 46.862 116.464 68.0428Z" fill="#00AEF6"/>
<path d="M116.464 68.0428C101.977 89.2236 82.1439 100.861 72.1657 94.0364C62.1875 87.2116 65.8428 64.5085 80.3301 43.3277C94.8173 22.147 114.65 10.5092 124.629 17.3341C134.607 24.159 130.951 46.862 116.464 68.0428Z" fill="#00AEF6"/>
<path d="M115.638 67.4781C108.459 77.9747 99.9803 86.0651 92.1171 90.6791C84.1795 95.3368 77.2114 96.2766 72.7294 93.2109C68.2473 90.1453 66.5969 83.3106 68.0598 74.2244C68.8011 69.6201 70.3318 64.5361 72.6113 59.2629H71.5231C64.8661 74.8892 64.687 88.9216 72.1648 94.0363C82.143 100.861 101.976 89.2234 116.463 68.0427C130.951 46.8619 134.606 24.1589 124.628 17.334C115.115 10.8277 96.6469 21.1004 82.3918 40.4242L83.7182 40.3173C90.3045 31.5546 97.7299 24.7667 104.675 20.6912C112.613 16.0335 119.581 15.0937 124.063 18.1594C128.545 21.225 130.196 28.0597 128.733 37.1459C127.284 46.1469 122.817 56.9815 115.638 67.4781Z" fill="#F41832"/>
<path fill-rule="evenodd" clip-rule="evenodd" d="M210.139 170.575C210.197 171.717 209.966 173.206 208.765 174.441C206.395 176.879 203.05 176.408 199.916 175.363C198.477 174.884 196.849 175.018 195.544 175.294C194.898 175.431 194.345 175.599 193.955 175.733C193.76 175.799 193.606 175.857 193.503 175.898C193.451 175.918 193.411 175.935 193.386 175.945L193.357 175.957L193.351 175.96L193.35 175.96C193.35 175.96 193.35 175.96 193.151 175.502C192.951 175.043 192.951 175.043 192.951 175.043L192.953 175.043L192.956 175.041L192.966 175.037L193.002 175.022C193.034 175.009 193.079 174.99 193.137 174.967C193.253 174.922 193.421 174.859 193.631 174.787C194.051 174.643 194.643 174.462 195.337 174.316C196.713 174.025 198.547 173.853 200.232 174.415C203.348 175.453 206.13 175.717 208.048 173.744C208.991 172.774 209.189 171.598 209.14 170.626C209.115 170.141 209.029 169.716 208.949 169.414C208.908 169.263 208.87 169.144 208.843 169.065C208.829 169.025 208.818 168.995 208.811 168.976L208.803 168.956L208.802 168.953C208.802 168.953 208.802 168.953 209.264 168.763C209.727 168.572 209.727 168.573 209.727 168.573L209.727 168.574L209.729 168.578L209.733 168.588L209.746 168.621C209.756 168.649 209.771 168.688 209.788 168.738C209.822 168.838 209.868 168.98 209.915 169.157C210.009 169.509 210.11 170.004 210.139 170.575Z" fill="#F41832"/>
<path fill-rule="evenodd" clip-rule="evenodd" d="M193.671 185.03C191.877 185.483 189.737 185.671 187.416 184.526L187.858 183.629C189.888 184.63 191.761 184.481 193.427 184.06C194.071 183.898 194.671 183.699 195.244 183.508C195.422 183.449 195.598 183.391 195.771 183.335C196.478 183.106 197.181 182.904 197.807 182.904C200.323 182.904 202.199 185.327 201.733 188.261C201.604 189.068 201.082 189.911 200.478 190.695C199.89 191.457 199.168 192.232 198.507 192.94C198.477 192.972 198.448 193.003 198.419 193.034C197.72 193.783 197.116 194.439 196.76 194.967C196.579 195.235 196.498 195.419 196.477 195.532C196.473 195.554 196.472 195.569 196.472 195.578C197.072 196.063 197.455 196.25 197.785 196.393C197.83 196.413 197.876 196.432 197.923 196.452C198.23 196.582 198.565 196.723 198.972 197.039L198.359 197.829C198.06 197.597 197.841 197.504 197.541 197.376C197.492 197.356 197.441 197.334 197.387 197.31C196.987 197.137 196.523 196.906 195.839 196.352C195.505 196.082 195.428 195.703 195.494 195.349C195.553 195.031 195.728 194.708 195.931 194.408C196.34 193.8 197.007 193.081 197.687 192.352C197.713 192.325 197.738 192.298 197.763 192.271C198.434 191.552 199.128 190.808 199.686 190.084C200.277 189.318 200.659 188.645 200.745 188.104C201.136 185.647 199.582 183.904 197.807 183.904C197.36 183.904 196.799 184.054 196.079 184.287C195.92 184.338 195.754 184.393 195.582 184.45C195.002 184.643 194.355 184.858 193.671 185.03Z" fill="#F41832"/>
<path d="M187.076 184.165L183.869 184.623L174.172 183.248L172.129 182.853L170.658 181.11V178.285C172.744 177.758 173.939 177.794 176.079 179.583C176.079 179.583 177.534 177.074 179.25 176.55C180.966 176.025 182.587 176.979 185.162 177.408C187.532 177.803 186.448 179.314 186.261 179.551C186.581 179.159 189.834 175.219 191.505 175.001C193.264 174.772 194.483 179.429 193.264 180.269C192.044 181.109 189.21 182.035 187.076 184.165Z" fill="white"/>
<path fill-rule="evenodd" clip-rule="evenodd" d="M194.25 179.086C194.218 179.671 194.054 180.331 193.547 180.68C193.211 180.912 192.777 181.141 192.308 181.378C192.178 181.444 192.044 181.511 191.907 181.58C191.542 181.763 191.154 181.957 190.748 182.174C189.638 182.767 188.446 183.504 187.429 184.519L187.311 184.636L183.869 185.128L174.089 183.741L171.86 183.311L170.158 181.293V177.895L170.536 177.8C171.595 177.532 172.506 177.385 173.447 177.575C174.261 177.739 175.05 178.145 175.959 178.844C176.126 178.597 176.358 178.278 176.637 177.942C177.226 177.237 178.098 176.379 179.104 176.071C180.093 175.769 181.036 175.903 182.001 176.135C182.323 176.212 182.643 176.299 182.973 176.388C183.66 176.575 184.387 176.772 185.244 176.914C185.884 177.021 186.363 177.214 186.69 177.5C186.834 177.627 186.942 177.767 187.018 177.913C187.319 177.581 187.661 177.218 188.023 176.857C188.562 176.318 189.154 175.774 189.727 175.347C190.28 174.935 190.885 174.577 191.44 174.505C192.129 174.415 192.689 174.816 193.08 175.292C193.477 175.776 193.782 176.429 193.98 177.09C194.179 177.753 194.283 178.465 194.25 179.086ZM186.235 179.583L185.846 179.269L185.848 179.266L185.854 179.26L185.87 179.239C185.906 179.194 185.985 179.086 186.054 178.948C186.127 178.802 186.171 178.659 186.17 178.541C186.17 178.444 186.143 178.351 186.03 178.252C185.898 178.136 185.624 177.992 185.079 177.901C184.174 177.75 183.36 177.53 182.649 177.338C182.335 177.252 182.04 177.173 181.767 177.107C180.849 176.886 180.123 176.806 179.396 177.028C178.686 177.245 177.973 177.903 177.405 178.583C177.13 178.913 176.905 179.228 176.749 179.461C176.671 179.577 176.611 179.672 176.57 179.737C176.55 179.77 176.535 179.795 176.525 179.811L176.514 179.829L176.512 179.833L176.214 180.347L175.759 179.966C174.718 179.097 173.96 178.699 173.249 178.555C172.627 178.43 171.992 178.489 171.158 178.678V180.927L172.397 182.396L174.254 182.755L183.869 184.118L186.843 183.693C187.932 182.639 189.173 181.882 190.277 181.292C190.695 181.068 191.101 180.865 191.47 180.68C191.604 180.613 191.733 180.549 191.856 180.486C192.329 180.247 192.706 180.045 192.98 179.857C193.083 179.786 193.223 179.549 193.251 179.032C193.277 178.55 193.195 177.955 193.022 177.377C192.848 176.798 192.594 176.277 192.307 175.926C192.012 175.567 191.76 175.472 191.569 175.496C191.289 175.533 190.861 175.749 190.324 176.149C189.807 176.535 189.253 177.042 188.73 177.564C187.691 178.602 186.814 179.665 186.651 179.864C186.642 179.876 186.634 179.885 186.628 179.893L186.62 179.903L186.617 179.906L186.616 179.907L186.615 179.908L186.235 179.583ZM185.846 179.269L186.235 179.583L186.615 179.908L185.846 179.269Z" fill="#F41832"/>
<path d="M165.586 194.254C164.131 196.302 162.379 196.982 155.407 196.247L151.63 200.76C151.63 200.76 152.673 195.581 150.791 196.247C148.908 196.913 140.268 195.923 140.268 195.923C146.874 194.674 147.261 194.249 149.636 192.994L154.275 192.866C148.653 192.732 145.155 191.638 141.879 188.272H163.278C163.278 188.272 156.279 188.272 150.791 187.858C145.303 187.443 144.18 182.71 144.18 182.71L152.48 183.691L157.78 184.535C152.83 183.563 150.391 182.366 149.636 179.877C149.636 179.877 155.589 179.97 156.982 180.402C158.375 180.834 158.241 183.049 160.235 182.71C162.229 182.371 166.859 180.891 166.859 180.891L172.002 182.71L165.586 194.254Z" fill="white"/>
<path fill-rule="evenodd" clip-rule="evenodd" d="M148.959 179.366L149.644 179.377L149.636 179.877C149.644 179.377 149.644 179.377 149.644 179.377L149.712 179.378L149.905 179.382C150.071 179.385 150.31 179.391 150.602 179.398C151.183 179.414 151.975 179.439 152.81 179.478C153.645 179.517 154.528 179.569 155.292 179.64C156.04 179.709 156.724 179.798 157.13 179.924C157.605 180.072 157.935 180.369 158.185 180.676C158.343 180.87 158.497 181.108 158.63 181.312C158.69 181.404 158.745 181.489 158.795 181.561C158.979 181.828 159.141 182.01 159.331 182.12C159.504 182.22 159.749 182.286 160.151 182.217C161.115 182.053 162.743 181.607 164.154 181.193C164.854 180.988 165.493 180.793 165.956 180.65C166.188 180.578 166.376 180.519 166.505 180.478L166.655 180.431L166.706 180.414L166.867 180.363L172.726 182.436L166.01 194.521L165.994 194.543C165.61 195.083 165.191 195.557 164.653 195.94C164.112 196.324 163.475 196.603 162.675 196.782C161.137 197.127 158.958 197.113 155.619 196.772L152.013 201.08L151.14 200.661L151.14 200.658L151.142 200.648L151.15 200.608C151.157 200.572 151.167 200.519 151.179 200.451C151.203 200.315 151.235 200.121 151.268 199.89C151.335 199.424 151.404 198.82 151.416 198.243C151.429 197.646 151.378 197.154 151.256 196.867C151.198 196.731 151.148 196.699 151.139 196.695C151.135 196.693 151.126 196.688 151.103 196.688C151.078 196.688 151.031 196.692 150.957 196.719C150.661 196.823 150.269 196.885 149.842 196.923C149.406 196.961 148.898 196.977 148.353 196.978C147.261 196.978 145.992 196.916 144.789 196.834C143.585 196.751 142.441 196.647 141.598 196.565C141.177 196.523 140.83 196.487 140.589 196.461C140.469 196.448 140.374 196.438 140.31 196.431L140.236 196.422L140.212 196.42L140.211 196.419C140.211 196.419 140.211 196.419 140.268 195.923L140.211 196.419L140.175 195.431C143.477 194.807 145.194 194.394 146.376 193.988C147.344 193.655 147.953 193.328 148.815 192.866C148.856 192.844 148.897 192.822 148.939 192.799C148.274 192.651 147.639 192.47 147.029 192.252C144.963 191.513 143.206 190.352 141.521 188.621L140.695 187.772H148.147C146.717 187.201 145.717 186.309 145.033 185.437C144.517 184.777 144.185 184.133 143.981 183.651C143.878 183.411 143.808 183.209 143.762 183.066C143.739 182.994 143.723 182.937 143.711 182.896C143.706 182.876 143.702 182.859 143.699 182.848L143.695 182.833L143.694 182.829L143.693 182.827C143.693 182.827 143.693 182.826 144.18 182.71L143.693 182.826L143.528 182.13L151.686 183.094C150.389 182.327 149.558 181.343 149.158 180.022L148.959 179.366ZM157.692 185.027C159.481 185.378 161.59 185.699 164.049 186.039L164.196 185.05L157.867 184.042C155.408 183.559 153.627 183.029 152.377 182.337C151.407 181.8 150.767 181.173 150.376 180.393C150.439 180.394 150.506 180.396 150.575 180.398C151.153 180.413 151.937 180.438 152.764 180.477C153.591 180.515 154.457 180.567 155.201 180.635C155.96 180.705 156.543 180.789 156.834 180.879C157.055 180.948 157.231 181.089 157.41 181.308C157.536 181.463 157.634 181.616 157.747 181.791C157.814 181.894 157.886 182.005 157.971 182.129C158.177 182.428 158.443 182.763 158.832 182.987C159.237 183.22 159.724 183.304 160.319 183.203C161.349 183.028 163.032 182.564 164.435 182.153C165.142 181.946 165.785 181.749 166.252 181.605C166.486 181.532 166.675 181.473 166.806 181.432L166.85 181.418L171.278 182.984L165.163 193.986C164.824 194.46 164.484 194.832 164.072 195.125C163.657 195.421 163.147 195.651 162.456 195.806C161.052 196.121 158.943 196.117 155.459 195.75L155.194 195.722L152.368 199.098C152.392 198.828 152.41 198.544 152.416 198.264C152.429 197.65 152.388 196.972 152.176 196.475C152.067 196.22 151.89 195.956 151.596 195.805C151.289 195.648 150.95 195.66 150.624 195.776C150.449 195.838 150.159 195.891 149.754 195.926C149.357 195.961 148.881 195.977 148.352 195.978C147.294 195.978 146.05 195.918 144.857 195.836C144.449 195.808 144.048 195.777 143.663 195.746C145.007 195.448 145.948 195.192 146.701 194.933C147.751 194.573 148.435 194.205 149.304 193.739C149.452 193.659 149.605 193.577 149.767 193.491L154.277 193.366C156.56 193.419 159.182 193.316 162.257 193.144L162.215 192.145L154.275 192.365C151.496 192.299 149.279 191.995 147.366 191.31C145.811 190.754 144.44 189.939 143.124 188.772H163.278L163.278 187.772L163.199 187.772L162.969 187.771C162.767 187.77 162.473 187.769 162.103 187.765C161.363 187.759 160.318 187.746 159.103 187.72C156.67 187.668 153.559 187.565 150.828 187.359C148.245 187.164 146.714 185.962 145.821 184.82C145.384 184.263 145.098 183.716 144.918 183.301L152.411 184.186L157.692 185.027Z" fill="#F41832"/>
<path fill-rule="evenodd" clip-rule="evenodd" d="M159.219 196.769C159.194 196.646 159.192 196.518 159.206 196.39L160.202 196.423L160.208 196.54C160.248 196.547 160.317 196.555 160.428 196.546C160.839 196.515 161.488 196.296 162.251 195.895C163.771 195.095 165.494 193.705 166.314 192.237L167.245 192.557C167.137 193.253 167.34 194.274 167.812 195.578C168.278 196.862 168.975 198.342 169.774 199.922C170.244 200.852 170.751 201.818 171.263 202.795C172.476 205.108 173.721 207.481 174.59 209.581C175.252 211.181 175.268 212.95 174.949 214.669C174.63 216.39 173.969 218.094 173.24 219.591C172.51 221.091 171.703 222.4 171.079 223.333C170.767 223.8 170.5 224.174 170.311 224.433C170.216 224.562 170.141 224.662 170.089 224.73C170.062 224.765 170.042 224.791 170.028 224.809L170.012 224.829L170.008 224.835L170.006 224.837C170.006 224.837 170.006 224.837 169.893 224.749L170.006 224.837L169.163 224.311C171.568 219.305 172.88 216.149 172.888 213.131C172.894 210.684 172.039 208.274 170.061 204.992C170.711 208.602 170.644 211.392 169.914 213.892C169.013 216.978 167.12 219.559 164.488 222.649L163.694 222.044C165.959 218.716 167.074 215.934 167.513 213.531C167.951 211.131 167.723 209.078 167.258 207.193C167.024 206.248 166.731 205.345 166.431 204.456C166.374 204.289 166.317 204.122 166.261 203.955C166.017 203.24 165.775 202.529 165.569 201.823C165.059 200.073 164.75 198.292 165.16 196.345L165.18 196.251L166.334 194.519L166.458 194.602C166.401 194.381 166.353 194.165 166.315 193.955C165.304 195.135 163.929 196.142 162.717 196.78C161.913 197.203 161.118 197.497 160.504 197.543C160.425 197.549 160.343 197.552 160.26 197.548L160.758 207.309L160.728 207.399C159.834 210.055 157.202 211.887 154.913 212.141C153.841 212.26 135.87 213.382 117.92 214.354C108.939 214.84 99.9523 215.289 93.073 215.556C89.634 215.689 86.7179 215.778 84.591 215.802C83.5283 215.815 82.6571 215.811 82.0141 215.789C81.6933 215.778 81.4224 215.762 81.2099 215.741C81.0215 215.721 80.8112 215.692 80.6608 215.626C80.2599 215.45 79.9287 215.092 79.6463 214.7C79.3561 214.298 79.0722 213.794 78.7872 213.248C78.6001 212.889 78.412 212.512 78.2184 212.124C77.8094 211.305 77.3759 210.436 76.8759 209.59C76.1433 208.35 75.3113 207.239 74.3099 206.528C73.3302 205.832 72.1775 205.509 70.7366 205.854C67.5204 206.623 63.7865 207.148 60.6271 207.358C59.0475 207.462 57.6015 207.489 56.4295 207.425C55.8437 207.394 55.3184 207.339 54.8749 207.258C54.4394 207.179 54.0488 207.068 53.7541 206.908C53.4012 206.715 53.1529 206.378 52.9722 206.018C52.7881 205.652 52.648 205.21 52.539 204.738C52.3207 203.792 52.21 202.646 52.1571 201.554C52.1284 200.963 52.1163 200.381 52.114 199.848L49.4511 205.922L49.0694 205.861C45.3975 205.273 42.8703 205.324 39.5779 206.028C42.1725 206.201 44.2243 206.714 46.9245 207.882L46.7212 208.841C44.2626 208.817 42.415 208.87 40.6922 209.195C39.5728 209.406 38.4977 209.734 37.3389 210.239C41.7829 210.264 44.662 210.79 49.2462 211.704L49.137 212.695C46.2648 212.629 44.2068 212.686 42.594 213.182C41.3321 213.571 40.3268 214.235 39.4265 215.381C41.4363 215.152 43.5252 215.28 45.3948 215.394C45.6672 215.41 45.935 215.427 46.1972 215.442C47.42 215.511 48.5149 215.55 49.4345 215.461C50.3613 215.371 51.032 215.158 51.4662 214.788C52.6022 213.818 55.7597 211.581 59.4468 210.015C63.1039 208.462 67.4559 207.496 70.8578 209.332C74.2246 211.15 75.1465 213.801 75.1977 215.996C75.223 217.079 75.0374 218.043 74.8473 218.734C74.752 219.08 74.6548 219.36 74.5806 219.556C74.5435 219.654 74.512 219.731 74.4893 219.784C74.4779 219.811 74.4688 219.832 74.4621 219.847L74.4542 219.865L74.4517 219.87L74.4509 219.872C74.4508 219.872 74.4504 219.873 73.9969 219.663C73.5434 219.452 73.5433 219.452 73.5432 219.452L73.5438 219.451L73.5484 219.441C73.5527 219.431 73.5596 219.415 73.5686 219.394C73.5866 219.352 73.6133 219.287 73.6456 219.201C73.7103 219.031 73.7973 218.78 73.8832 218.468C74.0555 217.842 74.2204 216.978 74.198 216.019C74.1538 214.128 73.3874 211.834 70.3828 210.212C67.4133 208.609 63.4519 209.401 59.8377 210.936C56.2536 212.458 53.182 214.638 52.1151 215.548C51.4478 216.118 50.529 216.36 49.5308 216.456C48.5256 216.554 47.3603 216.509 46.1405 216.44C45.8748 216.425 45.6061 216.409 45.3351 216.392C43.0837 216.256 40.6701 216.11 38.4523 216.54L37.3347 216.756L37.9313 215.787C39.1092 213.873 40.468 212.79 42.2998 212.226C42.9311 212.032 43.6153 211.901 44.362 211.815C41.5168 211.361 38.9534 211.163 35.1771 211.263L34.9219 210.326C36.9607 209.198 38.6703 208.559 40.5068 208.212C41.6175 208.003 42.7672 207.902 44.0523 207.86C41.5615 207.071 39.3417 206.902 35.8343 206.969L35.688 205.988C40.9988 204.478 43.9952 204.081 48.845 204.814L52.2143 197.128L53.1712 197.359L53.171 197.364L53.1701 197.38L53.1666 197.447C53.1635 197.505 53.1593 197.592 53.1545 197.703C53.145 197.925 53.1333 198.244 53.1249 198.63C53.108 199.403 53.1042 200.44 53.1559 201.506C53.2078 202.575 53.3148 203.653 53.5133 204.513C53.6127 204.944 53.7308 205.301 53.8657 205.569C54.0038 205.844 54.135 205.976 54.233 206.03C54.3893 206.115 54.6574 206.202 55.0542 206.275C55.443 206.345 55.9237 206.397 56.4835 206.427C57.6025 206.487 59.0059 206.463 60.561 206.36C63.6711 206.154 67.3488 205.636 70.504 204.881C72.2488 204.464 73.6945 204.864 74.889 205.713C76.0619 206.546 76.9801 207.801 77.7368 209.081C78.2547 209.958 78.7175 210.885 79.1345 211.72C79.3233 212.098 79.5028 212.458 79.6737 212.785C79.954 213.322 80.211 213.774 80.4576 214.116C80.7121 214.469 80.9137 214.645 81.062 214.71C81.0585 214.708 81.0601 214.709 81.0683 214.71C81.0908 214.715 81.1624 214.73 81.312 214.746C81.4922 214.764 81.7377 214.779 82.0484 214.79C82.6687 214.811 83.5221 214.815 84.5794 214.802C86.6925 214.778 89.5979 214.69 93.0342 214.556C99.9058 214.29 108.886 213.841 117.866 213.355C135.837 212.383 153.767 211.262 154.803 211.147C156.707 210.936 158.959 209.383 159.749 207.168L159.219 196.769ZM166.779 195.655L166.12 196.644C165.787 198.323 166.047 199.892 166.529 201.543C166.728 202.225 166.961 202.91 167.204 203.623C167.262 203.792 167.32 203.963 167.378 204.136C167.68 205.03 167.984 205.965 168.228 206.954C168.718 208.937 168.967 211.138 168.497 213.711C168.333 214.605 168.083 215.541 167.729 216.525C168.251 215.576 168.66 214.62 168.954 213.612C169.788 210.754 169.713 207.41 168.502 202.506L169.403 202.108C170.533 203.793 171.44 205.285 172.135 206.663C171.585 205.563 170.993 204.434 170.403 203.309C169.885 202.321 169.368 201.336 168.881 200.373C168.079 198.786 167.359 197.262 166.872 195.919C166.84 195.831 166.809 195.743 166.779 195.655ZM172.247 206.886C173.361 209.149 173.893 211.112 173.888 213.134C173.885 214.286 173.707 215.449 173.373 216.687C173.624 215.962 173.829 215.223 173.966 214.487C174.263 212.884 174.23 211.327 173.666 209.963C173.261 208.984 172.775 207.949 172.247 206.886ZM73.5432 219.452C73.5431 219.452 73.5431 219.452 73.5432 219.452V219.452Z" fill="#F41832"/>
<path fill-rule="evenodd" clip-rule="evenodd" d="M71.2422 218.195C70.5766 220.319 69.3908 222.052 67.5706 223.978L66.8438 223.291C68.6044 221.428 69.6839 219.824 70.288 217.896C70.8956 215.957 71.0366 213.646 70.837 210.342L71.8352 210.282C72.0373 213.627 71.9043 216.082 71.2422 218.195Z" fill="#F41832"/>
<path d="M168.876 195.189C166.63 195.518 167.142 191.788 167.439 190.626C167.899 189.058 169.272 185.614 171.089 184.381C172.905 183.148 174.333 186.355 174.819 188.112L179.361 185.922L183.74 187.139C184.579 187.004 186.352 187.009 186.741 188.112C187.13 189.215 184.903 190.518 183.74 191.032V196.563C183.011 196.347 181.972 196.709 180.739 196.06C180.189 192.991 180.667 191.433 177.991 191.433C175.314 191.433 174.195 194.411 168.876 195.189Z" fill="white"/>
<path fill-rule="evenodd" clip-rule="evenodd" d="M175.127 187.409C174.848 186.577 174.415 185.582 173.854 184.827C173.507 184.36 173.074 183.935 172.551 183.731C171.992 183.513 171.39 183.572 170.808 183.968C169.792 184.657 168.947 185.921 168.311 187.148C167.667 188.391 167.197 189.675 166.96 190.485L166.957 190.494L166.955 190.502C166.799 191.115 166.582 192.403 166.707 193.522C166.769 194.077 166.922 194.663 167.275 195.095C167.66 195.565 168.23 195.789 168.949 195.684C171.708 195.28 173.388 194.3 174.699 193.437C174.839 193.345 174.973 193.255 175.103 193.169C176.209 192.433 176.959 191.933 177.991 191.933C178.621 191.933 178.992 192.027 179.224 192.159C179.436 192.28 179.58 192.461 179.693 192.768C179.813 193.094 179.883 193.523 179.958 194.106C179.972 194.217 179.987 194.333 180.002 194.453C180.063 194.947 180.134 195.518 180.247 196.148L180.29 196.389L180.506 196.502C181.215 196.875 181.867 196.954 182.411 196.974C182.545 196.978 182.673 196.979 182.792 196.98L182.819 196.98C182.929 196.981 183.027 196.982 183.122 196.985C183.329 196.991 183.479 197.007 183.598 197.043L184.24 197.233V191.351C184.817 191.073 185.545 190.66 186.137 190.182C186.485 189.901 186.813 189.576 187.028 189.22C187.245 188.86 187.377 188.412 187.213 187.946C186.929 187.142 186.164 186.805 185.509 186.671C184.89 186.544 184.232 186.566 183.772 186.629L179.313 185.39L175.127 187.409ZM172.188 184.663C171.953 184.571 171.696 184.574 171.369 184.795C170.569 185.338 169.819 186.413 169.199 187.608C168.59 188.783 168.144 190 167.922 190.758C167.781 191.312 167.595 192.463 167.701 193.412C167.755 193.893 167.876 194.251 168.049 194.462C168.191 194.635 168.4 194.754 168.804 194.695C171.363 194.32 172.902 193.422 174.149 192.602C174.286 192.512 174.422 192.421 174.556 192.33C175.621 191.615 176.637 190.933 177.991 190.933C178.698 190.933 179.271 191.034 179.719 191.29C180.187 191.557 180.46 191.957 180.632 192.423C180.796 192.87 180.876 193.406 180.95 193.978C180.965 194.096 180.98 194.217 180.995 194.34C181.048 194.763 181.105 195.22 181.188 195.721C181.63 195.91 182.044 195.96 182.446 195.974C182.564 195.978 182.68 195.979 182.798 195.98L182.828 195.98C182.934 195.981 183.045 195.982 183.152 195.985C183.181 195.986 183.211 195.987 183.24 195.988V190.706L183.538 190.574C184.095 190.328 184.901 189.895 185.509 189.404C185.814 189.157 186.043 188.917 186.172 188.703C186.299 188.492 186.3 188.363 186.27 188.278C186.164 187.979 185.848 187.761 185.309 187.651C184.787 187.544 184.198 187.572 183.82 187.633L183.712 187.65L179.409 186.454L174.497 188.822L174.337 188.245C174.102 187.395 173.644 186.22 173.052 185.424C172.754 185.023 172.459 184.768 172.188 184.663Z" fill="#F41832"/>
<path d="M85.1953 80.5938H116.488V88.9971H85.1953V80.5938Z" fill="white"/>
<path fill-rule="evenodd" clip-rule="evenodd" d="M115.488 81.5938H86.1953V87.9971H115.488V81.5938ZM85.1953 80.5938V88.9971H116.488V80.5938H85.1953Z" fill="#F21D1B"/>
<path d="M82.5352 73.499H118.137V81.9023H82.5352V73.499Z" fill="white"/>
<path fill-rule="evenodd" clip-rule="evenodd" d="M117.137 74.499H83.5352V80.9023H117.137V74.499ZM82.5352 73.499V81.9023H118.137V73.499H82.5352Z" fill="#F21D1B"/>
<path d="M168.768 177.344C168.761 177.351 168.755 177.358 168.749 177.365C168.584 177.558 168.213 177.468 167.788 177.365C167.299 177.247 166.737 177.111 166.331 177.365C165.572 177.84 165.036 178.783 165.089 179.23C165.142 179.677 165.502 180.309 165.917 180.473C166.092 180.542 166.384 180.411 166.639 180.296C166.989 180.139 167.271 180.013 167.09 180.473C166.779 181.269 167.09 182.337 167.09 182.337L168.057 182.959L168.749 184.271C168.749 184.271 168.922 185.514 169.369 185.514C169.62 185.514 169.98 185.362 170.296 185.229C170.545 185.124 170.767 185.03 170.889 185.03C170.964 185.03 171.08 185.016 171.217 185C171.585 184.956 172.106 184.893 172.408 185.03C172.822 185.219 173.858 186.55 173.858 186.55V188.483C174.157 188.782 174.839 189.367 175.17 189.312C175.39 189.275 175.884 189.043 176.329 188.834C176.721 188.65 177.076 188.483 177.173 188.483C177.337 188.483 177.742 187.486 177.928 186.976C177.943 186.972 177.959 186.968 177.974 186.964H178.968L180.556 187.793H181.868C182.2 187.793 183.296 187.24 183.802 186.964L184.216 185.514L183.457 183.442C183.457 183.442 182.37 182.291 181.953 182.154C181.536 182.018 180.94 181.923 180.556 181.923C180.276 181.923 179.789 182.132 179.377 182.496C179.15 182.619 178.996 182.792 178.834 182.974C178.335 183.534 177.761 184.179 174.744 183.704C174.434 183.326 174.073 182.959 173.858 182.959C173.689 182.959 173.503 182.797 173.321 182.639C173.145 182.487 172.973 182.337 172.822 182.337H170.889C170.889 182.337 172.019 176.844 170.889 176.503C169.777 176.168 169.127 176.926 168.768 177.344Z" fill="#F21D1B"/>
<path d="M169.281 178.428C170.839 177.098 170.553 178.984 170.553 178.984V181.288C170.553 181.685 173.97 184.069 173.413 183.83C172.857 183.592 171.109 182.4 170.553 182.242C169.996 182.083 168.169 181.527 168.169 181.288C168.169 181.098 166.423 180.941 166.87 180.146C167.317 179.352 167.723 179.758 169.281 178.428Z" fill="#F41832"/>
<path d="M59.3485 222.297C60.8192 222.297 62.0106 221.105 62.0106 219.635C62.0106 218.165 60.8192 216.973 59.3485 216.973C58.3543 216.973 57.4891 217.517 57.0321 218.323C55.2352 218.691 53.9662 219.041 53.4072 220.623C52.8483 222.205 54.0711 224.458 55.2352 225.594C57.5614 227.868 62.1981 229.175 66.3153 226.929C67.3075 226.388 68.241 225.856 69.12 225.345C70.0282 224.817 70.8797 224.31 71.6785 223.834C72.3778 223.418 73.036 223.026 73.6571 222.666C75.7098 221.472 77.3485 220.622 78.8485 220.209C80.3016 219.809 81.6121 219.824 83.0321 220.385C84.491 220.961 86.1317 222.139 88.1707 224.203L89.5926 222.797C87.4696 220.647 85.5965 219.248 83.7664 218.524C82.8778 218.174 82.0145 217.988 81.159 217.944C80.2117 217.895 79.2723 218.018 78.3172 218.281C76.5438 218.77 74.7059 219.742 72.6512 220.937C71.9989 221.316 71.3231 221.718 70.6141 222.141C69.0574 223.069 67.3387 224.092 65.3582 225.173C62.0926 226.954 58.3993 225.891 56.6317 224.164C55.7489 223.3 55.5321 222.474 55.7274 221.873C55.8465 221.507 56.1688 221.054 56.8758 220.623C57.2684 221.604 58.2274 222.297 59.3485 222.297Z" fill="#2E319A"/>
<path fill-rule="evenodd" clip-rule="evenodd" d="M108.681 223.073C107.48 221.646 105.172 219.285 101.991 218.392C98.6993 217.469 94.7199 218.179 90.3967 222.426C88.2138 224.57 86.4616 225.826 85.1165 226.498C84.0663 227.023 83.3244 227.163 82.8411 227.149C83.5526 226.907 84.0646 226.233 84.0646 225.439C84.0646 224.443 83.2566 223.635 82.2599 223.635C81.7123 223.635 81.2217 223.879 80.8907 224.264L80.8612 224.234C80.1324 224.946 79.7967 225.953 79.9574 226.899C80.1256 227.89 80.8293 228.74 81.9777 229.037C83.0676 229.319 84.4315 229.077 86.0105 228.287C87.6053 227.49 89.5259 226.085 91.7982 223.853C95.7101 220.01 98.974 219.623 101.45 220.318C104.036 221.043 106.02 223.016 107.151 224.36L108.681 223.073Z" fill="#2E319A"/>
<path fill-rule="evenodd" clip-rule="evenodd" d="M126.734 223.073C125.533 221.646 123.225 219.285 120.043 218.392C116.752 217.469 112.773 218.179 108.449 222.426C106.267 224.57 104.514 225.826 103.169 226.498C102.119 227.023 101.377 227.163 100.894 227.149C101.605 226.907 102.117 226.233 102.117 225.439C102.117 224.443 101.309 223.635 100.313 223.635C99.765 223.635 99.2744 223.879 98.9434 224.264L98.9139 224.234C98.1852 224.946 97.8495 225.953 98.0102 226.899C98.1783 227.89 98.882 228.74 100.03 229.037C101.12 229.319 102.484 229.077 104.063 228.287C105.658 227.49 107.579 226.085 109.851 223.853C113.763 220.01 117.027 219.623 119.503 220.318C122.089 221.043 124.072 223.016 125.204 224.36L126.734 223.073Z" fill="#2E319A"/>
<path fill-rule="evenodd" clip-rule="evenodd" d="M145.007 223.073C143.807 221.646 141.498 219.285 138.317 218.392C135.026 217.469 131.046 218.179 126.723 222.426C124.54 224.57 122.788 225.826 121.443 226.498C120.392 227.023 119.651 227.163 119.167 227.149C119.879 226.907 120.391 226.233 120.391 225.439C120.391 224.443 119.583 223.635 118.586 223.635C118.038 223.635 117.548 223.879 117.217 224.264L117.187 224.234C116.459 224.946 116.123 225.953 116.284 226.899C116.452 227.89 117.155 228.74 118.304 229.037C119.394 229.319 120.758 229.077 122.337 228.287C123.931 227.49 125.852 226.085 128.124 223.853C132.036 220.01 135.3 219.623 137.776 220.318C140.362 221.043 142.346 223.016 143.477 224.36L145.007 223.073Z" fill="#2E319A"/>
<path fill-rule="evenodd" clip-rule="evenodd" d="M164.052 223.073C162.851 221.646 160.543 219.285 157.362 218.392C154.07 217.469 150.091 218.179 145.768 222.426C143.585 224.57 141.833 225.826 140.488 226.498C139.437 227.023 138.695 227.163 138.212 227.149C138.924 226.907 139.436 226.233 139.436 225.439C139.436 224.443 138.628 223.635 137.631 223.635C137.083 223.635 136.593 223.879 136.262 224.264L136.232 224.234C135.504 224.946 135.168 225.953 135.329 226.899C135.497 227.89 136.2 228.74 137.349 229.037C138.439 229.319 139.803 229.077 141.382 228.287C142.976 227.49 144.897 226.085 147.169 223.853C151.081 220.01 154.345 219.623 156.821 220.318C159.407 221.043 161.391 223.016 162.522 224.36L164.052 223.073Z" fill="#2E319A"/>
<path fill-rule="evenodd" clip-rule="evenodd" d="M152.624 226.221C152.685 224.938 153.744 223.918 155.042 223.918C156.379 223.918 157.463 225.002 157.463 226.339C157.463 226.6 157.422 226.851 157.345 227.087C159.181 226.757 161.134 225.634 161.956 223.551L163.817 224.285C162.61 227.343 159.732 228.782 157.348 229.111C156.16 229.275 154.968 229.184 154.067 228.782C153.611 228.578 153.165 228.266 152.874 227.798C152.58 227.324 152.497 226.775 152.624 226.221Z" fill="#2E319A"/>
<path fill-rule="evenodd" clip-rule="evenodd" d="M172.55 229.144C175.708 229.144 177.94 228.399 179.351 227.196C180.784 225.974 181.28 224.348 181.039 222.875C180.804 221.436 179.859 220.138 178.453 219.602C177.292 219.159 175.962 219.286 174.656 220.06C174.655 220.06 174.653 220.06 174.651 220.06C173.687 220.06 172.906 220.842 172.906 221.806C172.906 222.769 173.687 223.551 174.651 223.551C175.615 223.551 176.396 222.769 176.396 221.806C176.396 221.689 176.385 221.575 176.363 221.465C176.918 221.289 177.385 221.335 177.74 221.471C178.408 221.725 178.933 222.382 179.066 223.197C179.193 223.978 178.955 224.906 178.053 225.674C177.129 226.462 175.427 227.144 172.55 227.144C170.925 227.144 168.881 226.358 166.954 225.189C165.038 224.027 163.409 222.591 162.596 221.481L160.982 222.663C161.999 224.05 163.856 225.649 165.916 226.899C167.965 228.142 170.386 229.143 172.55 229.144Z" fill="#2E319A"/>
<path d="M52.0576 182.783C56.4539 174.923 62.9285 163.546 63.7817 162.8L129.593 161.335L139.184 174.124L127.461 191.976L59.5186 193.042L52.0576 182.783Z" fill="#F71611"/>
<path fill-rule="evenodd" clip-rule="evenodd" d="M228.39 165.022L184.003 233.401H39.1391L10.1104 182.197H52.8289L137.257 170.966L228.39 165.022ZM137.454 172.957L52.9614 184.197H13.5432L40.3043 231.401H182.917L224.542 167.277L137.454 172.957Z" fill="#F21D1B"/>
<path d="M59.5713 190.431L55.1396 183.737L67.0188 165.635L127.924 165.069L135.561 176.006L127.17 189.582L59.5713 190.431Z" fill="#2E319A"/>
<path d="M87.4719 177.765V188.257H82.541V173.326H89.8944C90.3803 173.341 90.8591 173.371 91.3308 173.416C91.8024 173.46 92.2669 173.558 92.7243 173.707C94.2964 174.215 95.6185 175.105 96.6904 176.375C97.7623 177.645 98.2983 179.05 98.2983 180.59C98.2983 182.831 97.4908 184.685 95.8757 186.149C94.2607 187.599 92.2241 188.331 89.7658 188.346C89.6371 188.346 89.5085 188.346 89.3799 188.346C89.2513 188.346 89.1298 188.339 89.0154 188.324C88.8868 188.324 88.7582 188.316 88.6295 188.301C88.5009 188.301 88.3723 188.301 88.2436 188.301V183.907H89.4871C90.5161 183.922 91.4165 183.668 92.1883 183.145C92.9601 182.607 93.346 181.837 93.346 180.836C93.346 179.969 93.003 179.244 92.3169 178.662C91.6452 178.079 90.8448 177.787 89.9158 177.787L87.4719 177.765Z" fill="white"/>
<path d="M108.441 178.662V182.607H105.708V188.257H100.755V173.304H105.708V178.662H108.441ZM112.718 173.304V188.257H107.766V173.304H112.718Z" fill="white"/>
<path d="M121.549 183.1V179.177C121.92 179.192 122.249 179.125 122.535 178.975C122.835 178.826 122.985 178.564 122.985 178.191C122.985 177.907 122.878 177.66 122.664 177.451C122.449 177.227 122.185 177.115 121.87 177.115C121.513 177.115 121.241 177.234 121.056 177.473C120.884 177.713 120.784 177.974 120.756 178.258C120.756 178.273 120.756 178.295 120.756 178.325C120.756 178.34 120.756 178.355 120.756 178.37V188.257H115.846V178.662C115.846 178.333 115.86 178.004 115.889 177.675C115.932 177.331 116.025 176.995 116.168 176.666C116.611 175.59 117.368 174.708 118.44 174.021C119.526 173.319 120.698 172.967 121.956 172.967C123.557 172.967 125 173.483 126.287 174.514C127.573 175.53 128.216 176.793 128.216 178.303C128.216 179.035 128.052 179.745 127.723 180.433C127.394 181.105 126.901 181.681 126.244 182.159C126.187 182.204 126.129 182.241 126.072 182.271C126.029 182.301 125.979 182.331 125.922 182.361C125.393 182.689 124.85 182.899 124.293 182.988C123.75 183.078 123.164 183.123 122.535 183.123L121.549 183.1Z" fill="white"/>
<path d="M108.541 66.1898C120.392 58.7182 114.975 33.6855 94.9974 38.8756C81.7136 42.3268 65.2007 45.2103 54.3467 41.1934C54.3467 41.1934 63.5077 56.2712 75.2458 52.4337C86.9839 48.5963 89.9754 51.2016 90.4827 53.3366C90.9901 55.4717 87.7739 60.6607 81.2558 58.7279C82.2515 65.7616 96.6904 73.6614 108.541 66.1898Z" fill="#F21D1B"/>
<path d="M71.6426 179.307H81.0758C81.098 180.855 81.1394 181.694 80.8072 183.239H71.6426V179.307Z" fill="white"/>
<path fill-rule="evenodd" clip-rule="evenodd" d="M81.0755 181.018C81.0755 185.464 77.6286 189.069 73.3766 189.069C69.1246 189.069 65.6777 185.464 65.6777 181.018C65.6777 176.572 69.1246 172.967 73.3766 172.967C76.5525 172.967 79.2792 174.978 80.456 177.849L76.5114 178.738C75.8215 177.703 74.6748 177.026 73.3768 177.026C71.2681 177.026 69.5586 178.814 69.5586 181.019C69.5586 183.224 71.2681 185.011 73.3768 185.011C75.4855 185.011 77.195 183.224 77.195 181.019C77.195 180.406 77.063 179.825 76.8271 179.307H80.9012C81.0154 179.858 81.0755 180.431 81.0755 181.018Z" fill="white"/>
<path d="M93.4648 163.024L84.3809 88.8789H118.18L108.463 163.024L100.436 170.206L93.4648 163.024Z" fill="white"/>
<path fill-rule="evenodd" clip-rule="evenodd" d="M83.8164 88.3789H118.75L108.935 163.273L100.412 170.899L92.9895 163.252L83.8164 88.3789ZM84.9464 89.3789L93.9412 162.796L100.461 169.513L107.992 162.775L117.61 89.3789H84.9464Z" fill="#F41832"/>
<path d="M201.934 85.9157C181.198 89.8948 161.464 85.6912 139.953 90.3293L116.741 163.846C132.045 162.826 141.828 162.678 162.508 162.826L201.934 85.9157Z" fill="white"/>
<path fill-rule="evenodd" clip-rule="evenodd" d="M202.846 85.231L162.812 163.328L162.504 163.326C141.83 163.178 132.061 163.326 116.773 164.345L116.043 164.394L139.563 89.9014L139.847 89.8402C150.66 87.5087 161.021 87.4012 171.232 87.375C171.622 87.374 172.012 87.3731 172.401 87.3722C182.225 87.3499 191.919 87.3279 201.84 85.4242L202.846 85.231ZM140.341 90.757L117.437 163.299C132.269 162.326 142.057 162.182 162.203 162.324L201.025 86.5927C191.359 88.3296 181.907 88.3508 172.433 88.3721C172.033 88.373 171.634 88.3739 171.235 88.375C161.109 88.401 150.937 88.5092 140.341 90.757Z" fill="#F41832"/>
<path d="M191.314 81.0366C170.822 86.1258 150.891 82.9903 129.66 88.7793L116.735 163.361C132.379 158.225 138.112 157.556 158.77 156.59L191.314 81.0366Z" fill="white"/>
<path fill-rule="evenodd" clip-rule="evenodd" d="M192.172 80.3081L159.105 157.075L158.793 157.09C138.16 158.054 132.476 158.719 116.891 163.836L116.101 164.096L129.222 88.3804L129.528 88.2967C140.201 85.3866 150.54 84.7219 160.736 84.1461C161.125 84.1241 161.514 84.1023 161.903 84.0805C171.712 83.5295 181.39 82.9859 191.194 80.5512L192.172 80.3081ZM130.098 89.1784L117.37 162.628C132.404 157.733 138.354 157.048 158.434 156.105L190.459 81.758C180.896 84.0156 171.453 84.5458 161.988 85.0773C161.59 85.0996 161.191 85.122 160.792 85.1445C150.691 85.715 140.548 86.3697 130.098 89.1784Z" fill="#F41832"/>
<path d="M180.711 80.1338C160.219 85.223 140.287 82.0874 119.057 87.8765L107.585 165.017C123.372 156.64 133.383 153.937 154.041 152.972L180.711 80.1338Z" fill="white"/>
<path fill-rule="evenodd" clip-rule="evenodd" d="M181.504 79.4214L154.396 153.456L154.064 153.472C143.751 153.953 136.123 154.868 129.112 156.699C122.105 158.529 115.693 161.28 107.819 165.458L106.944 165.922L118.61 87.4798L118.925 87.3939C129.597 84.4838 139.936 83.819 150.132 83.2433C150.521 83.2213 150.91 83.1995 151.299 83.1776C161.108 82.6267 170.786 82.083 180.59 79.6483L181.504 79.4214ZM119.503 88.2734L108.224 164.114C115.745 160.17 122.014 157.519 128.86 155.731C135.89 153.895 143.507 152.976 153.685 152.488L179.919 80.84C170.334 83.1104 160.87 83.6418 151.384 84.1744C150.986 84.1968 150.587 84.2192 150.188 84.2417C140.089 84.812 129.95 85.4665 119.503 88.2734Z" fill="#F41832"/>
<path d="M0.91229 86.6305C21.6485 90.6096 41.3823 86.406 62.894 91.0442L86.1062 164.561C70.8013 163.541 61.0184 163.393 40.3387 163.541L0.91229 86.6305Z" fill="white"/>
<path fill-rule="evenodd" clip-rule="evenodd" d="M0.000239094 85.9459L40.0349 164.043L40.3429 164.041C61.0168 163.893 70.786 164.041 86.0735 165.06L86.804 165.108L63.2839 90.6162L62.9999 90.555C52.1863 88.2235 41.8261 88.1161 31.6142 88.0898C31.2245 88.0888 30.8349 88.0879 30.4456 88.087C20.6212 88.0647 10.9275 88.0427 1.0071 86.1391L0.000239094 85.9459ZM62.5054 91.4719L85.4096 164.014C70.5774 163.041 60.7901 162.896 40.6438 163.038L1.82201 87.3075C11.4872 89.0444 20.9396 89.0657 30.4141 89.087C30.8132 89.0879 31.2124 89.0888 31.6116 89.0898C41.7382 89.1158 51.9095 89.224 62.5054 91.4719Z" fill="#F41832"/>
<path d="M11.5324 81.7515C32.0245 86.8407 51.9558 83.7051 73.1867 89.4941L86.1113 164.076C70.468 158.94 64.7345 158.27 44.0768 157.305L11.5324 81.7515Z" fill="white"/>
<path fill-rule="evenodd" clip-rule="evenodd" d="M10.6742 81.0229L43.7412 157.79L44.0534 157.805C64.6863 158.768 70.3707 159.434 85.9553 164.551L86.7461 164.811L73.6251 89.0952L73.3183 89.0115C62.6458 86.1015 52.3064 85.4367 42.1106 84.8609C41.7215 84.839 41.3326 84.8171 40.9439 84.7953C31.1349 84.2443 21.4565 83.7007 11.6529 81.266L10.6742 81.0229ZM72.7485 89.8933L85.4768 163.343C70.4425 158.448 64.493 157.762 44.4123 156.82L12.3876 82.4728C21.9508 84.7305 31.3936 85.2607 40.8586 85.7921C41.2571 85.8145 41.6557 85.8369 42.0543 85.8594C52.1562 86.4298 62.2983 87.0845 72.7485 89.8933Z" fill="#F41832"/>
<path d="M22.1359 80.8486C42.6279 85.9378 62.5592 82.8023 83.7902 88.5913L95.2617 165.731C79.4744 157.355 69.4634 154.652 48.8057 153.687L22.1359 80.8486Z" fill="white"/>
<path fill-rule="evenodd" clip-rule="evenodd" d="M21.3431 80.1362L48.4509 154.171L48.7828 154.186C59.0953 154.668 66.7236 155.583 73.7342 157.413C80.7421 159.244 87.154 161.995 95.0278 166.173L95.9023 166.637L84.2371 88.1946L83.9221 88.1087C73.2497 85.1987 62.9103 84.5339 52.7146 83.9581C52.3254 83.9361 51.9365 83.9143 51.5478 83.8925C41.7389 83.3415 32.0604 82.7979 22.2568 80.3632L21.3431 80.1362ZM83.3442 88.9882L94.6224 164.828C87.1013 160.885 80.8323 158.234 73.9869 156.446C66.9569 154.61 59.3399 153.691 49.1615 153.203L22.9274 81.5548C32.5126 83.8253 41.9764 84.3566 51.4626 84.8893C51.8611 84.9116 52.2596 84.934 52.6582 84.9565C62.7574 85.5268 72.8969 86.1813 83.3442 88.9882Z" fill="#F41832"/>
<path d="M48.8943 136.567L47.1768 137.006L46.2138 133.198L47.9207 132.761C48.2751 132.67 48.517 132.368 48.6462 131.855C48.7789 131.34 48.7949 130.62 48.6941 129.695C48.5945 128.759 48.3764 127.633 48.0399 126.318L47.8127 125.43C47.5603 124.443 47.3019 123.588 47.0375 122.865C46.7743 122.131 46.5081 121.534 46.2389 121.072C45.9673 120.601 45.6927 120.266 45.4151 120.066C45.141 119.866 44.8675 119.801 44.5946 119.871L42.8718 120.311L41.8946 116.492L43.6174 116.051C44.142 115.917 44.6836 116.033 45.2422 116.401C45.802 116.758 46.3544 117.338 46.8994 118.14C47.4455 118.931 47.9593 119.906 48.4407 121.064C48.9233 122.212 49.3508 123.515 49.7235 124.971L49.9434 125.831C50.3136 127.278 50.564 128.626 50.6945 129.874C50.8285 131.121 50.8478 132.222 50.7523 133.178C50.6568 134.133 50.4524 134.907 50.139 135.497C49.8267 136.078 49.4118 136.434 48.8943 136.567ZM42.9952 116.21L48.2456 136.733L46.3792 137.21L41.1289 116.688L42.9952 116.21Z" fill="#423398"/>
<path d="M52.2289 118.443L54.4882 135.136L52.4836 135.648L50.078 114.398L51.3488 114.073L52.2289 118.443ZM57.9391 134.253L51.8992 118.528L50.5512 114.277L51.838 113.948L59.949 133.739L57.9391 134.253ZM55.9066 126.618L56.8838 130.438L52.9118 131.454L51.9346 127.634L55.9066 126.618ZM56.0508 138.055C55.8969 137.453 55.8605 136.927 55.9414 136.476C56.0248 136.034 56.2136 135.775 56.5078 135.7C56.802 135.625 57.0918 135.761 57.3771 136.109C57.6648 136.465 57.8856 136.945 58.0394 137.546C58.1933 138.147 58.2285 138.669 58.1452 139.111C58.0642 139.562 57.8766 139.825 57.5824 139.901C57.2882 139.976 56.9972 139.835 56.7095 139.478C56.4242 139.131 56.2047 138.656 56.0508 138.055Z" fill="#423398"/>
<path d="M55.6559 112.971L59.3599 121.515L58.5113 112.241L60.5212 111.726L61.3971 125.514L63.2831 132.886L61.3848 133.371L59.4989 125.999L53.6407 113.487L55.6559 112.971Z" fill="#423398"/>
<path d="M68.4169 110.462L70.8256 130.956L68.955 131.176L66.5463 110.682L68.4169 110.462ZM70.7512 110.187L71.1995 114.002L64.7137 114.764L64.2654 110.95L70.7512 110.187Z" fill="#423398"/>
<path d="M78.8999 119.205L78.9975 120.035C79.1816 121.602 79.2636 123.02 79.2433 124.287C79.2254 125.545 79.1173 126.633 78.919 127.551C78.7196 128.459 78.4414 129.172 78.0844 129.689C77.7263 130.198 77.2985 130.481 76.8011 130.539C76.3002 130.598 75.8148 130.422 75.3451 130.011C74.8778 129.59 74.4401 128.962 74.032 128.125C73.6263 127.278 73.2672 126.245 72.9547 125.026C72.6445 123.798 72.3974 122.4 72.2132 120.832L72.1156 120.002C71.9314 118.435 71.8477 117.018 71.8645 115.75C71.8848 114.483 71.9928 113.395 72.1887 112.487C72.387 111.57 72.6653 110.857 73.0234 110.348C73.3839 109.83 73.8146 109.542 74.3156 109.483C74.813 109.425 75.2954 109.606 75.7626 110.026C76.2324 110.437 76.6701 111.066 77.0757 111.913C77.4803 112.75 77.8394 113.783 78.1531 115.011C78.4668 116.24 78.7157 117.637 78.8999 119.205ZM77.1002 120.258L76.9993 119.399C76.8802 118.386 76.7417 117.498 76.5837 116.737C76.4282 115.966 76.2557 115.325 76.066 114.814C75.8763 114.304 75.6719 113.928 75.4527 113.688C75.236 113.437 75.0086 113.326 74.7705 113.354C74.5218 113.383 74.3211 113.545 74.1683 113.838C74.0145 114.123 73.9062 114.535 73.8437 115.075C73.7811 115.615 73.7636 116.279 73.7911 117.065C73.8212 117.842 73.8958 118.737 74.0149 119.75L74.1158 120.609C74.2338 121.613 74.3688 122.501 74.5207 123.273C74.6751 124.035 74.8459 124.676 75.0331 125.196C75.2239 125.716 75.4276 126.101 75.6444 126.351C75.8647 126.601 76.0992 126.712 76.3479 126.683C76.5859 126.655 76.7813 126.494 76.9341 126.2C77.0868 125.906 77.194 125.484 77.2555 124.935C77.3205 124.385 77.3398 123.721 77.3133 122.944C77.2893 122.158 77.2182 121.262 77.1002 120.258ZM72.2737 108.981L73.4 105.738L74.274 105.635L76.1322 108.527L74.965 108.665L74.0057 107.122L73.4355 108.844L72.2737 108.981ZM75.5479 106.912L76.0256 102.932L77.31 102.781L76.4859 106.802L75.5479 106.912Z" fill="#423398"/>
<path d="M81.794 108.889L84.2027 129.384L82.3321 129.604L79.9234 109.109L81.794 108.889ZM84.1283 108.615L84.5766 112.43L78.0908 113.192L77.6424 109.377L84.1283 108.615Z" fill="#423398"/>
<path d="M122.087 117.741L121.765 121.52L117.973 121.197L118.295 117.418L122.087 117.741ZM119.579 109.378L117.841 129.758L116.06 129.606L117.797 109.227L119.579 109.378ZM123.974 109.753L122.237 130.133L120.461 129.981L122.198 109.602L123.974 109.753Z" fill="#423398"/>
<path d="M130.318 120.149L130.247 120.975C130.115 122.533 129.916 123.926 129.651 125.153C129.39 126.372 129.079 127.407 128.716 128.26C128.355 129.103 127.958 129.742 127.525 130.175C127.094 130.598 126.641 130.79 126.167 130.75C125.69 130.709 125.273 130.443 124.916 129.952C124.564 129.452 124.279 128.756 124.062 127.863C123.849 126.962 123.715 125.888 123.661 124.643C123.612 123.388 123.653 121.982 123.786 120.424L123.856 119.598C123.989 118.04 124.186 116.647 124.448 115.419C124.713 114.191 125.024 113.156 125.382 112.312C125.745 111.46 126.142 110.821 126.573 110.398C127.009 109.965 127.465 109.769 127.942 109.81C128.416 109.85 128.829 110.12 129.182 110.62C129.539 111.111 129.824 111.807 130.037 112.709C130.251 113.601 130.384 114.675 130.437 115.93C130.49 117.184 130.451 118.591 130.318 120.149ZM128.44 120.821L128.513 119.967C128.599 118.959 128.643 118.07 128.643 117.299C128.649 116.52 128.613 115.863 128.535 115.33C128.458 114.797 128.341 114.393 128.184 114.116C128.031 113.83 127.841 113.678 127.614 113.659C127.377 113.638 127.159 113.756 126.96 114.012C126.762 114.258 126.582 114.637 126.419 115.15C126.256 115.662 126.111 116.303 125.984 117.072C125.861 117.833 125.757 118.717 125.671 119.725L125.598 120.578C125.513 121.577 125.466 122.466 125.457 123.245C125.453 124.015 125.488 124.672 125.561 125.214C125.637 125.756 125.752 126.17 125.905 126.455C126.061 126.741 126.258 126.894 126.494 126.915C126.721 126.934 126.934 126.816 127.133 126.56C127.332 126.305 127.513 125.916 127.677 125.394C127.844 124.873 127.991 124.232 128.117 123.472C128.248 122.703 128.355 121.819 128.44 120.821ZM124.998 133.611C125.049 133.014 125.18 132.522 125.39 132.136C125.599 131.759 125.844 131.582 126.125 131.606C126.406 131.63 126.618 131.845 126.76 132.252C126.902 132.669 126.947 133.175 126.896 133.773C126.846 134.37 126.715 134.857 126.506 135.234C126.296 135.62 126.05 135.801 125.77 135.777C125.489 135.753 125.277 135.533 125.136 135.117C124.993 134.71 124.947 134.208 124.998 133.611Z" fill="#423398"/>
<path d="M134.921 124.263L136.698 124.415C136.553 125.831 136.308 127.07 135.962 128.131C135.616 129.191 135.192 130.006 134.69 130.574C134.193 131.133 133.639 131.387 133.03 131.335C132.536 131.293 132.114 131.026 131.764 130.536C131.417 130.046 131.145 129.36 130.947 128.478C130.753 127.597 130.637 126.539 130.599 125.305C130.565 124.071 130.613 122.688 130.743 121.158L130.838 120.052C130.968 118.522 131.158 117.152 131.408 115.942C131.662 114.723 131.961 113.696 132.304 112.86C132.653 112.016 133.037 111.381 133.459 110.957C133.88 110.532 134.324 110.339 134.791 110.379C135.434 110.434 135.95 110.798 136.339 111.47C136.729 112.142 136.998 113.044 137.147 114.175C137.296 115.297 137.333 116.564 137.257 117.977L135.48 117.826C135.539 117.06 135.546 116.417 135.502 115.896C135.458 115.366 135.353 114.962 135.186 114.685C135.019 114.407 134.778 114.255 134.463 114.228C134.243 114.21 134.042 114.305 133.861 114.515C133.679 114.726 133.514 115.069 133.364 115.545C133.214 116.021 133.079 116.644 132.959 117.413C132.843 118.174 132.739 119.096 132.647 120.178L132.55 121.312C132.458 122.394 132.403 123.32 132.385 124.089C132.367 124.859 132.39 125.49 132.454 125.985C132.517 126.479 132.622 126.849 132.768 127.097C132.918 127.335 133.115 127.465 133.358 127.486C133.629 127.509 133.867 127.412 134.073 127.194C134.28 126.967 134.455 126.616 134.598 126.139C134.742 125.653 134.849 125.028 134.921 124.263Z" fill="#423398"/>
<path d="M147.004 114.355L142.356 132.803L140.612 132.364L145.26 113.915L147.004 114.355ZM149.181 114.903L148.316 118.337L142.268 116.813L143.133 113.379L149.181 114.903Z" fill="#423398"/>
<path d="M153.471 125.403L153.282 126.15C152.927 127.561 152.53 128.809 152.091 129.893C151.658 130.969 151.2 131.869 150.718 132.592C150.239 133.307 149.754 133.827 149.263 134.153C148.774 134.47 148.298 134.57 147.834 134.453C147.367 134.335 146.992 134.02 146.708 133.509C146.43 132.99 146.248 132.301 146.161 131.444C146.079 130.579 146.101 129.569 146.226 128.415C146.357 127.253 146.6 125.967 146.955 124.556L147.144 123.809C147.499 122.398 147.895 121.15 148.33 120.065C148.769 118.981 149.226 118.081 149.703 117.366C150.184 116.643 150.67 116.123 151.158 115.805C151.652 115.481 152.133 115.377 152.6 115.495C153.064 115.612 153.435 115.93 153.713 116.449C153.996 116.961 154.179 117.649 154.26 118.514C154.344 119.371 154.322 120.38 154.195 121.543C154.067 122.706 153.826 123.992 153.471 125.403ZM151.513 125.705L151.708 124.932C151.937 124.019 152.108 123.209 152.22 122.501C152.337 121.784 152.395 121.175 152.395 120.672C152.395 120.169 152.337 119.777 152.221 119.496C152.11 119.208 151.944 119.035 151.722 118.979C151.49 118.921 151.257 118.993 151.023 119.194C150.791 119.387 150.558 119.706 150.323 120.15C150.087 120.593 149.852 121.158 149.615 121.844C149.385 122.523 149.154 123.318 148.924 124.23L148.73 125.003C148.502 125.907 148.328 126.717 148.208 127.432C148.093 128.14 148.033 128.749 148.027 129.26C148.025 129.771 148.079 130.171 148.19 130.46C148.304 130.749 148.477 130.923 148.709 130.981C148.931 131.037 149.159 130.964 149.393 130.763C149.627 130.561 149.862 130.234 150.1 129.782C150.34 129.33 150.578 128.766 150.812 128.088C151.051 127.403 151.285 126.609 151.513 125.705ZM150.942 114.377L153.025 111.964L153.84 112.169L154.54 115.283L153.452 115.009L153.107 113.359L152.026 114.65L150.942 114.377ZM154.554 113.697L156.302 110.431L157.5 110.733L155.429 113.917L154.554 113.697Z" fill="#423398"/>
<path d="M159.48 117.498L154.831 135.946L153.087 135.507L157.735 117.058L159.48 117.498ZM161.656 118.046L160.791 121.48L154.743 119.956L155.608 116.522L161.656 118.046Z" fill="#423398"/>
</g>
<defs>
<clipPath id="clip0_3597_870">
<rect width="228.39" height="233.401" fill="white"/>
</clipPath>
</defs>
</svg>
